<svg width="175" height="29" viewBox="0 0 175 29" fill="none" xmlns="http://www.w3.org/2000/svg">
<g clip-path="url(#clip0_1853_17155)">
<path d="M21.1455 0.679318C21.2371 0.128006 21.9806 -0.207274 22.4405 0.145289L26.3601 3.96644C26.7422 4.47455 26.5675 4.81501 26.1578 5.19869C24.9942 6.28921 23.6283 7.24839 22.4578 8.3441C22.1258 8.56186 21.6642 8.52556 21.3841 8.24559C21.3253 8.18683 21.1437 7.90339 21.1437 7.83599V6.04726L20.9899 5.97813H8.23174C4.56113 5.78802 2.28234 10.6219 6.85202 11.3875C12.6925 11.5033 18.5451 11.4048 24.389 11.4377C27.1606 11.626 29.5569 13.0415 30.1188 15.9086C31.0438 20.6198 26.5779 24.0884 22.2434 24.1887H8.3009L8.25595 25.8651C8.20408 26.4492 7.54015 26.807 7.03183 26.5063C6.67394 26.2954 5.89763 25.4641 5.54664 25.1271C4.71847 24.3321 3.92314 23.4974 3.08458 22.711C2.67655 22.1649 2.90996 21.8313 3.33183 21.4338C4.50061 20.333 5.84749 19.3358 7.04394 18.2556C7.42604 18.0551 7.89805 18.1433 8.12973 18.5183C8.35796 18.8864 8.23001 19.5604 8.25422 20.0046C8.2646 20.1999 8.33548 20.3986 8.3009 20.606H22.2416C26.0661 20.3589 27.5997 15.7963 23.2704 15.0151C17.8587 14.8613 12.3346 15.2173 6.93501 15.0151C3.96809 14.9045 0.629438 13.9799 0.0796236 10.5943C-0.669023 5.9764 4.0286 2.42485 8.2767 2.35572H21.1455C21.2042 1.85107 21.0659 1.16323 21.1455 0.679318Z" fill="#FE37A2"/>
<path d="M57.5541 7.94303C58.7074 9.09577 59.2831 10.703 59.2831 12.7683V21.7552H55.4102V13.2937C55.4102 12.096 55.1059 11.1783 54.4973 10.5423C53.8887 9.90632 53.0588 9.58832 52.0076 9.58832C50.9564 9.58832 50.1213 9.90632 49.504 10.5423C48.8868 11.1783 48.5773 12.096 48.5773 13.2937V21.7552H44.7044V13.2937C44.7044 12.096 44.4001 11.1783 43.7915 10.5423C43.1829 9.90632 42.353 9.58832 41.3018 9.58832C40.2506 9.58832 39.3878 9.90632 38.7706 10.5423C38.1533 11.1783 37.8438 12.096 37.8438 13.2937V21.7552H33.9709V6.436H37.8438V8.28868C38.3418 7.64404 38.9815 7.13594 39.7664 6.76782C40.5497 6.3997 41.4124 6.21478 42.353 6.21478C43.5512 6.21478 44.6214 6.46883 45.562 6.97521C46.5025 7.48158 47.2304 8.20572 47.7474 9.14589C48.2453 8.26102 48.9681 7.55244 49.919 7.01669C50.8682 6.48266 51.8969 6.21478 53.0035 6.21478C54.8846 6.21478 56.4009 6.79029 57.5541 7.94303Z" fill="#FE37A2"/>
<path d="M62.8932 9.92014C63.5105 8.72247 64.349 7.80131 65.4106 7.15495C66.4705 6.51031 67.6548 6.18713 68.9654 6.18713C70.1082 6.18713 71.1093 6.41698 71.9669 6.87843C72.8245 7.33987 73.5109 7.92056 74.0278 8.6205V6.43599H77.9284V21.7552H74.0278V19.5154C73.5299 20.2343 72.8435 20.8288 71.9669 21.2989C71.0903 21.769 70.0806 22.0041 68.9377 22.0041C67.6462 22.0041 66.4705 21.6722 65.4106 21.0086C64.349 20.3449 63.5105 19.41 62.8932 18.2019C62.2742 16.9939 61.9665 15.6078 61.9665 14.0403C61.9665 12.4728 62.276 11.1178 62.8932 9.92014ZM73.4745 11.676C73.1063 11.0038 72.6083 10.487 71.9807 10.1275C71.3531 9.76806 70.6805 9.58832 69.9613 9.58832C69.242 9.58832 68.5781 9.7646 67.9695 10.1137C67.3609 10.4645 66.8664 10.9761 66.4895 11.6484C66.1108 12.3224 65.9224 13.1191 65.9224 14.0403C65.9224 14.9614 66.1108 15.7685 66.4895 16.4598C66.8681 17.1511 67.3644 17.6817 67.9833 18.0498C68.6006 18.4197 69.2593 18.6029 69.9613 18.6029C70.6632 18.6029 71.3531 18.4231 71.9807 18.0636C72.6066 17.7042 73.1045 17.1892 73.4745 16.5151C73.8428 15.8428 74.0278 15.0358 74.0278 14.0956C74.0278 13.1554 73.8428 12.3501 73.4745 11.676Z" fill="#FE37A2"/>
<path d="M87.5415 6.90608C88.3437 6.44464 89.2601 6.21478 90.294 6.21478V10.2796H89.2705C88.0533 10.2796 87.1352 10.5665 86.5179 11.1368C85.9007 11.7089 85.5912 12.7043 85.5912 14.1232V21.7552H81.7183V6.436H85.5912V8.81406C86.0892 8.00352 86.7393 7.36752 87.5415 6.90608Z" fill="#FE37A2"/>
<path d="M97.4036 9.61597V17.0267C97.4036 17.5434 97.5281 17.9167 97.777 18.1466C98.026 18.3765 98.4461 18.4923 99.0357 18.4923H100.834V21.7552H98.3995C95.1352 21.7552 93.503 20.1704 93.503 16.999V9.61597H91.6772V6.436H93.503V2.64768H97.4036V6.436H100.834V9.61597H97.4036Z" fill="#FE37A2"/>
<path d="M113.587 21.7552L109.327 14.2339H107.501V21.7552H103.628V2.45411H110.876C112.37 2.45411 113.642 2.71681 114.693 3.24219C115.745 3.76758 116.533 4.47789 117.059 5.3714C117.584 6.2649 117.847 7.26555 117.847 8.37163C117.847 9.64362 117.479 10.7912 116.74 11.8143C116.002 12.8374 114.906 13.5426 113.448 13.9297L118.068 21.7552H113.587ZM107.501 11.3304H110.737C111.789 11.3304 112.572 11.0781 113.089 10.57C113.606 10.0636 113.863 9.35846 113.863 8.45459C113.863 7.55072 113.604 6.88361 113.089 6.39452C112.572 5.90542 111.789 5.66174 110.737 5.66174H107.501V11.3304Z" fill="#FE37A2"/>
<path d="M135.496 15.257H124.293C124.384 16.363 124.772 17.2306 125.454 17.8563C126.136 18.4836 126.976 18.7964 127.972 18.7964C129.41 18.7964 130.434 18.1794 131.043 16.9437H135.22C134.777 18.4197 133.928 19.6312 132.675 20.58C131.421 21.5305 129.881 22.0041 128.055 22.0041C126.58 22.0041 125.256 21.6774 124.085 21.0224C122.915 20.3674 122.002 19.4428 121.346 18.2434C120.691 17.0457 120.364 15.6631 120.364 14.0956C120.364 12.5281 120.688 11.1195 121.333 9.92014C121.978 8.72247 122.882 7.80131 124.044 7.15495C125.206 6.51031 126.542 6.18713 128.055 6.18713C129.568 6.18713 130.816 6.50167 131.969 7.12729C133.122 7.75465 134.016 8.64297 134.653 9.79571C135.289 10.9484 135.607 12.2706 135.607 13.7638C135.607 14.3168 135.571 14.8145 135.496 15.257ZM131.596 12.6577C131.577 11.6622 131.217 10.8655 130.517 10.2658C129.815 9.66782 128.957 9.3671 127.944 9.3671C126.985 9.3671 126.177 9.65745 125.524 10.2381C124.868 10.8188 124.467 11.6259 124.32 12.6577H131.596Z" fill="#FE37A2"/>
<path d="M142.938 9.61597V17.0267C142.938 17.5434 143.062 17.9167 143.311 18.1466C143.56 18.3765 143.98 18.4923 144.57 18.4923H146.368V21.7552H143.934C140.669 21.7552 139.037 20.1704 139.037 16.999V9.61597H137.212V6.436H139.037V2.64768H142.938V6.436H146.368V9.61597H142.938Z" fill="#FE37A2"/>
<path d="M154.985 6.90608C155.788 6.44464 156.704 6.21478 157.738 6.21478V10.2796H156.714C155.497 10.2796 154.579 10.5665 153.962 11.1368C153.345 11.7089 153.035 12.7043 153.035 14.1232V21.7552H149.162V6.436H153.035V8.81406C153.533 8.00352 154.183 7.36752 154.985 6.90608Z" fill="#FE37A2"/>
<path d="M175 6.436L165.511 29H161.39L164.709 21.3681L158.568 6.436H162.911L166.867 17.1373L170.878 6.436H175Z" fill="#FE37A2"/>
</g>
<defs>
<clipPath id="clip0_1853_17155">
<rect width="175" height="29" fill="white"/>
</clipPath>
</defs>
</svg>
