<?xml version="1.0" encoding="UTF-8"?>
<svg id="Layer_1" xmlns="http://www.w3.org/2000/svg" version="1.1" viewBox="0 0 244 37">
  <!-- Generator: Adobe Illustrator 30.3.0, SVG Export Plug-In . SVG Version: 2.1.3 Build 182)  -->
  <defs>
    <style>
      .st0 {
        fill: #fe37a2;
      }
    </style>
  </defs>
  <path class="st0" d="M34,0H3C1.3,0,0,1.3,0,3v31c0,1.7,1.3,3,3,3h31c1.7,0,3-1.3,3-3V3C37,1.3,35.7,0,34,0ZM23.9,26.8h-10.7v1.3c0,.4-.6.7-1,.5-.3-.2-.9-.8-1.1-1.1-.6-.6-1.2-1.2-1.9-1.8-.3-.4-.1-.7.2-1,.9-.8,1.9-1.6,2.8-2.4.3-.2.7,0,.8.2.2.3,0,.8,0,1.1,0,.1,0,.3,0,.5h10.7c2.9-.2,4.1-3.7.8-4.3-4.1-.1-8.4.2-12.5,0-2.3,0-4.8-.8-5.2-3.4-.6-3.5,3-6.2,6.3-6.3h9.8c0-.4,0-.9,0-1.3,0-.4.6-.7,1-.4l3,2.9c.3.4.2.6-.2.9-.9.8-1.9,1.6-2.8,2.4-.3.2-.6.1-.8,0,0,0-.2-.3-.2-.3v-1.4h-.1c0,0-9.7,0-9.7,0-2.8-.1-4.5,3.5-1.1,4.1,4.5,0,8.9,0,13.4,0,2.1.1,3.9,1.2,4.4,3.4.7,3.6-2.7,6.3-6,6.3Z"/>
  <path class="st0" d="M237.5,14.1c1.6,0,3,.5,4,1.6,1,1,1.5,2.5,1.5,4.4v8.1h-3.5v-7.6c0-1.1-.3-1.9-.8-2.5-.6-.6-1.3-.9-2.2-.9s-1.7.3-2.3.9c-.5.6-.8,1.4-.8,2.5v7.6h-3.5v-13.9h3.5v1.7c.5-.6,1.1-1.1,1.8-1.4.7-.4,1.5-.5,2.4-.5Z"/>
  <path class="st0" d="M220,28.4c-1.3,0-2.5-.3-3.6-.9-1.1-.6-1.9-1.4-2.5-2.5-.6-1.1-.9-2.3-.9-3.8s.3-2.7.9-3.8c.6-1.1,1.5-1.9,2.6-2.5,1.1-.6,2.3-.9,3.6-.9s2.5.3,3.6.9c1.1.6,1.9,1.4,2.6,2.5.6,1.1.9,2.3.9,3.8s-.3,2.7-1,3.8c-.6,1.1-1.5,1.9-2.6,2.5-1.1.6-2.3.9-3.6.9ZM220,25.4c.6,0,1.2-.1,1.8-.4.6-.3,1-.8,1.4-1.4.3-.6.5-1.4.5-2.2,0-1.3-.4-2.3-1.1-3-.7-.7-1.5-1.1-2.5-1.1s-1.8.4-2.5,1.1c-.7.7-1,1.7-1,3s.3,2.3,1,3c.7.7,1.5,1,2.5,1Z"/>
  <path class="st0" d="M208.7,12.7c-.6,0-1.1-.2-1.6-.6-.4-.4-.6-.9-.6-1.5s.2-1.1.6-1.4c.4-.4.9-.6,1.6-.6s1.1.2,1.5.6c.4.4.6.9.6,1.4s-.2,1.1-.6,1.5c-.4.4-.9.6-1.5.6ZM210.4,14.3v13.9h-3.5v-13.9h3.5Z"/>
  <path class="st0" d="M201.3,17.2v6.7c0,.5.1.8.3,1,.2.2.6.3,1.2.3h1.6v3h-2.2c-3,0-4.4-1.4-4.4-4.3v-6.7h-1.7v-2.9h1.7v-3.4h3.5v3.4h3.1v2.9h-3.1Z"/>
  <path class="st0" d="M179.4,21.2c0-1.4.3-2.6.8-3.7.6-1.1,1.3-1.9,2.3-2.5,1-.6,2-.9,3.2-.9s1.9.2,2.7.6c.8.4,1.4.9,1.9,1.6v-2h3.5v13.9h-3.5v-2c-.4.6-1.1,1.2-1.9,1.6-.8.4-1.7.6-2.7.6s-2.2-.3-3.2-.9c-.9-.6-1.7-1.4-2.3-2.5-.6-1.1-.8-2.4-.8-3.8ZM190.3,21.3c0-.9-.2-1.6-.5-2.2-.3-.6-.8-1.1-1.4-1.4-.6-.3-1.2-.5-1.8-.5s-1.2.2-1.8.5c-.5.3-1,.8-1.3,1.4-.3.6-.5,1.3-.5,2.1s.2,1.6.5,2.2c.3.6.8,1.1,1.3,1.4.6.3,1.2.5,1.8.5s1.3-.2,1.8-.5c.6-.3,1-.8,1.4-1.4.3-.6.5-1.4.5-2.2Z"/>
  <path class="st0" d="M174.7,17.2v6.7c0,.5.1.8.3,1,.2.2.6.3,1.2.3h1.6v3h-2.2c-3,0-4.4-1.4-4.4-4.3v-6.7h-1.7v-2.9h1.7v-3.4h3.5v3.4h3.1v2.9h-3.1Z"/>
  <path class="st0" d="M161.7,14.1c1.6,0,3,.5,4,1.6,1,1,1.5,2.5,1.5,4.4v8.1h-3.5v-7.6c0-1.1-.3-1.9-.8-2.5-.6-.6-1.3-.9-2.2-.9s-1.7.3-2.3.9c-.6.6-.8,1.4-.8,2.5v7.6h-3.5v-13.9h3.5v1.7c.5-.6,1.1-1.1,1.8-1.4.7-.4,1.5-.5,2.4-.5Z"/>
  <path class="st0" d="M151.5,21c0,.5,0,1-.1,1.4h-10.1c0,1,.4,1.8,1.1,2.4.6.6,1.4.9,2.3.9,1.3,0,2.2-.6,2.8-1.7h3.8c-.4,1.3-1.2,2.4-2.3,3.3-1.1.8-2.5,1.3-4.2,1.3s-2.5-.3-3.6-.9c-1.1-.6-1.9-1.4-2.5-2.5-.6-1.1-.9-2.3-.9-3.8s.3-2.7.9-3.8c.6-1.1,1.4-1.9,2.4-2.5,1.1-.6,2.3-.9,3.6-.9s2.5.3,3.5.8c1.1.6,1.9,1.4,2.4,2.4.6,1,.9,2.2.9,3.6ZM147.9,20c0-.9-.3-1.6-1-2.1-.6-.5-1.4-.8-2.3-.8s-1.6.3-2.2.8c-.6.5-.9,1.2-1.1,2.2h6.6Z"/>
  <path class="st0" d="M129.6,14.1c1.7,0,3.1.5,4.1,1.6,1.1,1,1.6,2.5,1.6,4.4v8.1h-3.5v-7.6c0-1.1-.3-1.9-.8-2.5-.6-.6-1.3-.9-2.2-.9s-1.7.3-2.3.9c-.6.6-.8,1.4-.8,2.5v7.6h-3.5v-7.6c0-1.1-.3-1.9-.8-2.5-.6-.6-1.3-.9-2.2-.9s-1.7.3-2.3.9c-.5.6-.8,1.4-.8,2.5v7.6h-3.5v-13.9h3.5v1.7c.4-.6,1-1,1.7-1.4.7-.3,1.5-.5,2.3-.5s2.1.2,2.9.7c.8.5,1.5,1.1,2,2,.5-.8,1.1-1.4,2-1.9.9-.5,1.8-.7,2.8-.7Z"/>
  <path class="st0" d="M109,14.3v13.9h-3.5v-1.8c-.4.6-1,1.1-1.8,1.4-.7.3-1.5.5-2.4.5s-2-.2-2.9-.7c-.8-.5-1.5-1.1-2-2-.5-.9-.7-2-.7-3.2v-8.1h3.5v7.6c0,1.1.3,2,.8,2.6.6.6,1.3.9,2.2.9s1.7-.3,2.3-.9c.6-.6.8-1.5.8-2.6v-7.6h3.5Z"/>
  <path class="st0" d="M80,21.3c0-1.4.3-2.7.9-3.8.6-1.1,1.4-1.9,2.4-2.5,1-.6,2.2-.9,3.6-.9s3.1.4,4.2,1.3c1.1.9,1.9,2,2.3,3.6h-3.8c-.2-.6-.5-1.1-1-1.4-.5-.3-1.1-.5-1.8-.5-1,0-1.8.4-2.4,1.1-.6.7-.9,1.7-.9,3.1s.3,2.3.9,3.1c.6.7,1.4,1.1,2.4,1.1,1.4,0,2.3-.6,2.8-1.9h3.8c-.4,1.5-1.1,2.7-2.3,3.6-1.1.9-2.6,1.3-4.2,1.3s-2.5-.3-3.6-.9c-1-.6-1.8-1.4-2.4-2.5-.6-1.1-.9-2.3-.9-3.8Z"/>
  <path class="st0" d="M71.1,28.4c-1.3,0-2.5-.3-3.6-.9-1.1-.6-1.9-1.4-2.5-2.5-.6-1.1-.9-2.3-.9-3.8s.3-2.7.9-3.8c.6-1.1,1.5-1.9,2.6-2.5,1.1-.6,2.3-.9,3.6-.9s2.5.3,3.6.9c1.1.6,1.9,1.4,2.6,2.5.6,1.1.9,2.3.9,3.8s-.3,2.7-1,3.8c-.6,1.1-1.5,1.9-2.6,2.5-1.1.6-2.3.9-3.7.9ZM71.1,25.4c.6,0,1.2-.1,1.8-.4.6-.3,1-.8,1.3-1.4.3-.6.5-1.4.5-2.2,0-1.3-.3-2.3-1.1-3-.7-.7-1.5-1.1-2.5-1.1s-1.8.4-2.5,1.1c-.7.7-1,1.7-1,3s.3,2.3,1,3c.7.7,1.5,1,2.5,1Z"/>
  <path class="st0" d="M53.1,10.7c1.8,0,3.4.4,4.8,1.1,1.4.7,2.5,1.7,3.2,3.1.8,1.3,1.1,2.8,1.1,4.6s-.4,3.3-1.1,4.6c-.8,1.3-1.8,2.3-3.2,3-1.4.7-3,1.1-4.8,1.1h-6.1V10.7h6.1ZM53,25.2c1.8,0,3.2-.5,4.2-1.5s1.5-2.4,1.5-4.2-.5-3.2-1.5-4.2c-1-1-2.4-1.6-4.2-1.6h-2.5v11.5h2.5Z"/>
</svg>