<svg width="244" height="37" viewBox="0 0 244 37" fill="none" xmlns="http://www.w3.org/2000/svg">
<rect width="37" height="37" rx="3" fill="#FE37A2"/>
<path d="M23.103 8.84705C23.1731 8.42564 23.7411 8.16936 24.0925 8.43885L27.0873 11.3597C27.3792 11.748 27.2458 12.0083 26.9327 12.3016C26.0437 13.1351 25.0001 13.8683 24.1057 14.7058C23.8521 14.8723 23.4994 14.8446 23.2854 14.6305C23.2404 14.5856 23.1017 14.369 23.1017 14.3175V12.9502L22.9842 12.8973H13.2362C10.4317 12.752 8.69054 16.447 12.182 17.0322C16.6445 17.1207 21.1162 17.0454 25.5813 17.0705C27.6989 17.2145 29.5299 18.2964 29.9592 20.488C30.666 24.0892 27.2537 26.7405 23.9419 26.8171H13.2891L13.2547 28.0985C13.2151 28.545 12.7078 28.8185 12.3194 28.5886C12.046 28.4274 11.4528 27.792 11.1847 27.5344C10.5519 26.9267 9.94421 26.2887 9.3035 25.6876C8.99174 25.2702 9.17008 25.0152 9.49241 24.7114C10.3854 23.8699 11.4145 23.1076 12.3287 22.282C12.6206 22.1287 12.9813 22.1961 13.1583 22.4828C13.3327 22.7642 13.2349 23.2794 13.2534 23.6189C13.2613 23.7682 13.3155 23.9201 13.2891 24.0786H23.9406C26.8627 23.8897 28.0345 20.4021 24.7266 19.805C20.5918 19.6875 16.371 19.9596 12.2455 19.805C9.97855 19.7205 7.42763 19.0137 7.00754 16.4258C6.43554 12.896 10.0248 10.1813 13.2706 10.1285H23.103C23.148 9.74271 23.0423 9.21694 23.103 8.84705Z" fill="#1C1C1C"/>
<path d="M237.487 14.1375C239.137 14.1375 240.471 14.6625 241.487 15.7125C242.504 16.7458 243.012 18.1958 243.012 20.0625V28.1875H239.512V20.5375C239.512 19.4375 239.237 18.5958 238.688 18.0125C238.138 17.4125 237.388 17.1125 236.438 17.1125C235.471 17.1125 234.704 17.4125 234.137 18.0125C233.587 18.5958 233.312 19.4375 233.312 20.5375V28.1875H229.812V14.3375H233.312V16.0625C233.779 15.4625 234.371 14.9958 235.087 14.6625C235.821 14.3125 236.621 14.1375 237.487 14.1375Z" fill="#FE37A2"/>
<path d="M220.02 28.4125C218.687 28.4125 217.487 28.1208 216.42 27.5375C215.353 26.9375 214.512 26.0958 213.895 25.0125C213.295 23.9292 212.995 22.6792 212.995 21.2625C212.995 19.8458 213.303 18.5958 213.92 17.5125C214.553 16.4292 215.412 15.5958 216.495 15.0125C217.578 14.4125 218.787 14.1125 220.12 14.1125C221.453 14.1125 222.662 14.4125 223.745 15.0125C224.828 15.5958 225.678 16.4292 226.295 17.5125C226.928 18.5958 227.245 19.8458 227.245 21.2625C227.245 22.6792 226.92 23.9292 226.27 25.0125C225.637 26.0958 224.77 26.9375 223.67 27.5375C222.587 28.1208 221.37 28.4125 220.02 28.4125ZM220.02 25.3625C220.653 25.3625 221.245 25.2125 221.795 24.9125C222.362 24.5958 222.812 24.1292 223.145 23.5125C223.478 22.8958 223.645 22.1458 223.645 21.2625C223.645 19.9458 223.295 18.9375 222.595 18.2375C221.912 17.5208 221.07 17.1625 220.07 17.1625C219.07 17.1625 218.228 17.5208 217.545 18.2375C216.878 18.9375 216.545 19.9458 216.545 21.2625C216.545 22.5792 216.87 23.5958 217.52 24.3125C218.187 25.0125 219.02 25.3625 220.02 25.3625Z" fill="#FE37A2"/>
<path d="M208.687 12.6875C208.07 12.6875 207.554 12.4958 207.137 12.1125C206.737 11.7125 206.537 11.2208 206.537 10.6375C206.537 10.0542 206.737 9.57084 207.137 9.1875C207.554 8.7875 208.07 8.5875 208.687 8.5875C209.304 8.5875 209.812 8.7875 210.212 9.1875C210.629 9.57084 210.837 10.0542 210.837 10.6375C210.837 11.2208 210.629 11.7125 210.212 12.1125C209.812 12.4958 209.304 12.6875 208.687 12.6875ZM210.412 14.3375V28.1875H206.912V14.3375H210.412Z" fill="#FE37A2"/>
<path d="M201.295 17.2125V23.9125C201.295 24.3792 201.403 24.7208 201.62 24.9375C201.853 25.1375 202.236 25.2375 202.77 25.2375H204.395V28.1875H202.195C199.245 28.1875 197.77 26.7542 197.77 23.8875V17.2125H196.12V14.3375H197.77V10.9125H201.295V14.3375H204.395V17.2125H201.295Z" fill="#FE37A2"/>
<path d="M179.376 21.2125C179.376 19.8125 179.651 18.5708 180.201 17.4875C180.768 16.4042 181.526 15.5708 182.476 14.9875C183.443 14.4042 184.518 14.1125 185.701 14.1125C186.735 14.1125 187.635 14.3208 188.401 14.7375C189.185 15.1542 189.81 15.6792 190.276 16.3125V14.3375H193.801V28.1875H190.276V26.1625C189.826 26.8125 189.201 27.3542 188.401 27.7875C187.618 28.2042 186.71 28.4125 185.676 28.4125C184.51 28.4125 183.443 28.1125 182.476 27.5125C181.526 26.9125 180.768 26.0708 180.201 24.9875C179.651 23.8875 179.376 22.6292 179.376 21.2125ZM190.276 21.2625C190.276 20.4125 190.11 19.6875 189.776 19.0875C189.443 18.4708 188.993 18.0042 188.426 17.6875C187.86 17.3542 187.251 17.1875 186.601 17.1875C185.951 17.1875 185.351 17.3458 184.801 17.6625C184.251 17.9792 183.801 18.4458 183.451 19.0625C183.118 19.6625 182.951 20.3792 182.951 21.2125C182.951 22.0458 183.118 22.7792 183.451 23.4125C183.801 24.0292 184.251 24.5042 184.801 24.8375C185.368 25.1708 185.968 25.3375 186.601 25.3375C187.251 25.3375 187.86 25.1792 188.426 24.8625C188.993 24.5292 189.443 24.0625 189.776 23.4625C190.11 22.8458 190.276 22.1125 190.276 21.2625Z" fill="#FE37A2"/>
<path d="M174.659 17.2125V23.9125C174.659 24.3792 174.767 24.7208 174.984 24.9375C175.217 25.1375 175.601 25.2375 176.134 25.2375H177.759V28.1875H175.559C172.609 28.1875 171.134 26.7542 171.134 23.8875V17.2125H169.484V14.3375H171.134V10.9125H174.659V14.3375H177.759V17.2125H174.659Z" fill="#FE37A2"/>
<path d="M161.731 14.1375C163.381 14.1375 164.714 14.6625 165.731 15.7125C166.747 16.7458 167.256 18.1958 167.256 20.0625V28.1875H163.756V20.5375C163.756 19.4375 163.481 18.5958 162.931 18.0125C162.381 17.4125 161.631 17.1125 160.681 17.1125C159.714 17.1125 158.947 17.4125 158.381 18.0125C157.831 18.5958 157.556 19.4375 157.556 20.5375V28.1875H154.056V14.3375H157.556V16.0625C158.022 15.4625 158.614 14.9958 159.331 14.6625C160.064 14.3125 160.864 14.1375 161.731 14.1375Z" fill="#FE37A2"/>
<path d="M151.501 20.9625C151.501 21.4625 151.468 21.9125 151.401 22.3125H141.276C141.359 23.3125 141.709 24.0958 142.326 24.6625C142.943 25.2292 143.701 25.5125 144.601 25.5125C145.901 25.5125 146.826 24.9542 147.376 23.8375H151.151C150.751 25.1708 149.984 26.2708 148.851 27.1375C147.718 27.9875 146.326 28.4125 144.676 28.4125C143.343 28.4125 142.143 28.1208 141.076 27.5375C140.026 26.9375 139.201 26.0958 138.601 25.0125C138.018 23.9292 137.726 22.6792 137.726 21.2625C137.726 19.8292 138.018 18.5708 138.601 17.4875C139.184 16.4042 140.001 15.5708 141.051 14.9875C142.101 14.4042 143.309 14.1125 144.676 14.1125C145.993 14.1125 147.168 14.3958 148.201 14.9625C149.251 15.5292 150.059 16.3375 150.626 17.3875C151.209 18.4208 151.501 19.6125 151.501 20.9625ZM147.876 19.9625C147.859 19.0625 147.534 18.3458 146.901 17.8125C146.268 17.2625 145.493 16.9875 144.576 16.9875C143.709 16.9875 142.976 17.2542 142.376 17.7875C141.793 18.3042 141.434 19.0292 141.301 19.9625H147.876Z" fill="#FE37A2"/>
<path d="M129.63 14.1375C131.33 14.1375 132.696 14.6625 133.73 15.7125C134.78 16.7458 135.305 18.1958 135.305 20.0625V28.1875H131.805V20.5375C131.805 19.4542 131.53 18.6292 130.98 18.0625C130.43 17.4792 129.68 17.1875 128.73 17.1875C127.78 17.1875 127.021 17.4792 126.455 18.0625C125.905 18.6292 125.63 19.4542 125.63 20.5375V28.1875H122.13V20.5375C122.13 19.4542 121.855 18.6292 121.305 18.0625C120.755 17.4792 120.005 17.1875 119.055 17.1875C118.088 17.1875 117.321 17.4792 116.755 18.0625C116.205 18.6292 115.93 19.4542 115.93 20.5375V28.1875H112.43V14.3375H115.93V16.0125C116.38 15.4292 116.955 14.9708 117.655 14.6375C118.371 14.3042 119.155 14.1375 120.005 14.1375C121.088 14.1375 122.055 14.3708 122.905 14.8375C123.755 15.2875 124.413 15.9375 124.88 16.7875C125.33 15.9875 125.98 15.3458 126.83 14.8625C127.696 14.3792 128.63 14.1375 129.63 14.1375Z" fill="#FE37A2"/>
<path d="M108.976 14.3375V28.1875H105.451V26.4375C105.001 27.0375 104.41 27.5125 103.676 27.8625C102.96 28.1958 102.176 28.3625 101.326 28.3625C100.243 28.3625 99.2847 28.1375 98.4514 27.6875C97.618 27.2208 96.9597 26.5458 96.4764 25.6625C96.0097 24.7625 95.7764 23.6958 95.7764 22.4625V14.3375H99.2764V21.9625C99.2764 23.0625 99.5514 23.9125 100.101 24.5125C100.651 25.0958 101.401 25.3875 102.351 25.3875C103.318 25.3875 104.076 25.0958 104.626 24.5125C105.176 23.9125 105.451 23.0625 105.451 21.9625V14.3375H108.976Z" fill="#FE37A2"/>
<path d="M79.9624 21.2625C79.9624 19.8292 80.2541 18.5792 80.8374 17.5125C81.4207 16.4292 82.2291 15.5958 83.2624 15.0125C84.2957 14.4125 85.4791 14.1125 86.8124 14.1125C88.5291 14.1125 89.9457 14.5458 91.0624 15.4125C92.1957 16.2625 92.9541 17.4625 93.3374 19.0125H89.5624C89.3624 18.4125 89.0207 17.9458 88.5374 17.6125C88.0707 17.2625 87.4874 17.0875 86.7874 17.0875C85.7874 17.0875 84.9957 17.4542 84.4124 18.1875C83.8291 18.9042 83.5374 19.9292 83.5374 21.2625C83.5374 22.5792 83.8291 23.6042 84.4124 24.3375C84.9957 25.0542 85.7874 25.4125 86.7874 25.4125C88.2041 25.4125 89.1291 24.7792 89.5624 23.5125H93.3374C92.9541 25.0125 92.1957 26.2042 91.0624 27.0875C89.9291 27.9708 88.5124 28.4125 86.8124 28.4125C85.4791 28.4125 84.2957 28.1208 83.2624 27.5375C82.2291 26.9375 81.4207 26.1042 80.8374 25.0375C80.2541 23.9542 79.9624 22.6958 79.9624 21.2625Z" fill="#FE37A2"/>
<path d="M71.0699 28.4125C69.7366 28.4125 68.5366 28.1208 67.4699 27.5375C66.4033 26.9375 65.5616 26.0958 64.9449 25.0125C64.3449 23.9292 64.0449 22.6792 64.0449 21.2625C64.0449 19.8458 64.3533 18.5958 64.9699 17.5125C65.6033 16.4292 66.4616 15.5958 67.5449 15.0125C68.6283 14.4125 69.8366 14.1125 71.1699 14.1125C72.5033 14.1125 73.7116 14.4125 74.7949 15.0125C75.8783 15.5958 76.7283 16.4292 77.3449 17.5125C77.9783 18.5958 78.2949 19.8458 78.2949 21.2625C78.2949 22.6792 77.9699 23.9292 77.3199 25.0125C76.6866 26.0958 75.8199 26.9375 74.7199 27.5375C73.6366 28.1208 72.4199 28.4125 71.0699 28.4125ZM71.0699 25.3625C71.7033 25.3625 72.2949 25.2125 72.8449 24.9125C73.4116 24.5958 73.8616 24.1292 74.1949 23.5125C74.5283 22.8958 74.6949 22.1458 74.6949 21.2625C74.6949 19.9458 74.3449 18.9375 73.6449 18.2375C72.9616 17.5208 72.1199 17.1625 71.1199 17.1625C70.1199 17.1625 69.2783 17.5208 68.5949 18.2375C67.9283 18.9375 67.5949 19.9458 67.5949 21.2625C67.5949 22.5792 67.9199 23.5958 68.5699 24.3125C69.2366 25.0125 70.0699 25.3625 71.0699 25.3625Z" fill="#FE37A2"/>
<path d="M53.1 10.7375C54.9333 10.7375 56.5417 11.0958 57.925 11.8125C59.325 12.5292 60.4 13.5542 61.15 14.8875C61.9167 16.2042 62.3 17.7375 62.3 19.4875C62.3 21.2375 61.9167 22.7708 61.15 24.0875C60.4 25.3875 59.325 26.3958 57.925 27.1125C56.5417 27.8292 54.9333 28.1875 53.1 28.1875H47V10.7375H53.1ZM52.975 25.2125C54.8083 25.2125 56.225 24.7125 57.225 23.7125C58.225 22.7125 58.725 21.3042 58.725 19.4875C58.725 17.6708 58.225 16.2542 57.225 15.2375C56.225 14.2042 54.8083 13.6875 52.975 13.6875H50.5V25.2125H52.975Z" fill="#FE37A2"/>
</svg>
